 http://imageshack.us/m/718/9255/8b2e0e4ed2101a49e819a4f.jpg

Country.......: USA
Genre.........: Romance, Drama
Date release..: 10.02.2010 [World]
Director......: James Keach
Writers.......: Steve Adams
Duration......: 94 min.
More..........: http://www.imdb.com/title/tt1296898
Trailer.......: http://www.imdb.com/video/imdb/vi1035836185
Trailer.......:

Pilot :
A Hollywood-set romantic tale of a guy who is content to live his life without a job yet with the love of his life, a young actress. 

Cats :
Rachel Bilson   	 ...  	Emma Twist
Tom Sturridge 	... 	Will Donner
Richard Jenkins 	... 	Richard Twist
Blythe Danner 	... 	Miranda Twist
Matthew Davis 	... 	Aaron
Scott Mechlowicz 	... 	Jim Donner
Jaime King 	... 	Susan Donner
Nikki Blonsky 	... 	Dolores
Nelson Franklin 	... 	Joe
Richard Gant 	... 	Albert
Roz Ryan 	... 	Dorothy
Jamey Anthony 	... 	Cafe Flirt
K.C. Clyde 	... 	Dennis
Christel Edwards 	... 	Cafe Flirt
Larry Filion 	... 	Larry the Bartender 

Data Technical :
!!! SAMPLE !!!
Audio.....: English
Subtitles.: English .srt, Spanish .srt, French .srt, Italian .srt, Polish .txt
Format                           : AVI
Format/Info                      : Audio Video Interleave
File size                        : 700 MiB
Duration                         : 1h 34mn
Overall bit rate                 : 1 040 Kbps
Writing application              : Nandub v1.0rc2
Writing library                  : Nandub build 1852/release
Video
ID                               : 0
Format                           : MPEG-4 Visual
Format profile                   : Advanced Simple@L5
Format settings, BVOP            : Yes
Format settings, QPel            : No
Format settings, GMC             : No warppoints
Format settings, Matrix          : Default (H.263)
Codec ID                         : XVID
Codec ID/Hint                    : XviD
Duration                         : 1h 34mn
Bit rate                         : 898 Kbps
Width                            : 624 pixels
Height                           : 336 pixels
Display aspect ratio             : 1.857
Frame rate                       : 23.976 fps
Color space                      : YUV
Chroma subsampling               : 4:2:0
Bit depth                        : 8 bits
Scan type                        : Progressive
Bits/(Pixel*Frame)               : 0.179
Stream size                      : 604 MiB (86%)
Writing library                  : XviD 1.2.1 (UTC 2008-12-04)
Audio
ID                               : 1
Format                           : MPEG Audio
Format version                   : Version 1
Format profile                   : Layer 3
Mode                             : Joint stereo
Mode extension                   : MS Stereo
Codec ID                         : 55
Codec ID/Hint                    : MP3
Duration                         : 1h 34mn
Bit rate mode                    : Variable
Bit rate                         : 129 Kbps
Nominal bit rate                 : 144 Kbps
Channel(s)                       : 2 channels
Sampling rate                    : 48.0 KHz
Stream size                      : 87.2 MiB (12%)
Alignment                        : Aligned on interleaves
Interleave, duration             : 24 ms (0.58 video frame)
Interleave, preload duration     : 136 ms
Writing library                  : LAME3.98r
Encoding settings                : -m j -V 4 -q 2 -lowpass 17.5 --abr 144

Screen : 
http://imageshack.us/m/600/5415/waitingforforever2010s1.jpg 
http://imageshack.us/m/198/2752/waitingforforever2010s2.jpg 
http://imageshack.us/m/849/265/waitingforforever2010s3.jpg 
http://imageshack.us/m/62/711/waitingforforever2010s4.jpg 
http://imageshack.us/m/862/2222/waitingforforever2010s5.jpg